<svg width="333" height="96" viewBox="0 0 333 96" fill="none" xmlns="http://www.w3.org/2000/svg">
<rect x="6" y="7" width="321" height="83" fill="#0F1923"/>
<rect x="0.75" y="0.75" width="331.5" height="94.5" stroke="#9A9A9A" stroke-width="1.5"/>
<rect x="6" y="7" width="6" height="6" fill="#ECE8E1"/>
<rect x="321" y="84" width="6" height="6" fill="#FF4C53"/>
<line x1="0.75" y1="40" x2="0.749999" y2="57" stroke="#ECE8E1" stroke-width="1.5"/>
<line x1="332" y1="40" x2="332" y2="57" stroke="#ECE8E1" stroke-width="2"/>
<path d="M127.136 50.64V60H121.736V33.756H133.328C136.064 33.756 138.152 34.452 139.592 35.844C141.056 37.236 141.788 39.252 141.788 41.892C141.788 44.556 141.068 46.68 139.628 48.264C138.188 49.848 136.268 50.64 133.868 50.64H127.136ZM127.136 46.14H132.176C134.984 46.14 136.388 44.832 136.388 42.216C136.388 40.872 136.04 39.876 135.344 39.228C134.672 38.58 133.616 38.256 132.176 38.256H127.136V46.14ZM149.675 33.756V55.5H162.239V60H144.275V33.756H149.675ZM181.438 54.708H171.61L169.846 60H164.338L173.662 33.756H179.638L188.71 60H183.166L181.438 54.708ZM179.962 50.208L176.542 39.948L173.122 50.208H179.962ZM202.322 50.28V60H196.922V50.28L188.21 33.756H194.222L199.586 45.348L204.59 33.756H210.638L202.322 50.28Z" fill="white"/>
</svg>
